<?xml version="1.0" encoding="utf-8"?>
<!-- Generator: Adobe Illustrator 27.6.1, SVG Export Plug-In . SVG Version: 6.00 Build 0)  -->
<svg version="1.1" id="Calque_1" xmlns="http://www.w3.org/2000/svg" xmlns:xlink="http://www.w3.org/1999/xlink" x="0px" y="0px"
	 viewBox="0 0 175 61" style="enable-background:new 0 0 175 61;" xml:space="preserve">
<style type="text/css">
	.st0{enable-background:new    ;}
	.st1{fill:#FFFFFF;}
	.st2{fill:none;}
</style>
<g transform="translate(-70 -65)">
	<g class="st0">
		<path class="st1" d="M159.9,84.3c-0.1,1.9-0.6,3.4-1.6,4.4s-2.4,1.5-4.3,1.5c-1.9,0-3.4-0.6-4.4-1.9s-1.5-3.1-1.5-5.4V80
			c0-2.3,0.5-4.2,1.6-5.4s2.5-1.9,4.4-1.9c1.9,0,3.3,0.5,4.2,1.6s1.5,2.5,1.6,4.5h-3.5c0-1.2-0.2-2-0.6-2.5s-1-0.7-1.9-0.7
			c-0.9,0-1.6,0.3-2,1s-0.6,1.7-0.6,3.2v3.2c0,1.7,0.2,2.9,0.6,3.5s1,0.9,2,0.9c0.9,0,1.5-0.2,1.9-0.7s0.5-1.2,0.6-2.4H159.9z"/>
		<path class="st1" d="M161.9,74c0-0.5,0.2-0.9,0.5-1.3s0.8-0.5,1.3-0.5s1,0.2,1.3,0.5s0.5,0.8,0.5,1.3c0,0.5-0.2,0.9-0.5,1.3
			s-0.8,0.5-1.3,0.5s-1-0.2-1.3-0.5S161.9,74.5,161.9,74z M165.4,90H162V77.3h3.3V90z"/>
		<path class="st1" d="M174.2,80.5l-1.1-0.1c-0.9,0-1.5,0.4-1.8,1.2V90h-3.3V77.3h3.1l0.1,1.4c0.5-1.1,1.2-1.6,2.2-1.6
			c0.4,0,0.7,0.1,0.9,0.2L174.2,80.5z"/>
		<path class="st1" d="M180.3,87.5c1,0,1.4-0.6,1.5-1.9h3.1c0,1.4-0.4,2.5-1.3,3.4s-1.9,1.3-3.2,1.3c-1.6,0-2.9-0.5-3.7-1.5
			s-1.3-2.5-1.3-4.5v-1c0-2,0.4-3.5,1.3-4.6s2.1-1.6,3.8-1.6c1.4,0,2.5,0.4,3.3,1.3s1.2,2.1,1.2,3.7h-3.1c0-0.7-0.1-1.3-0.4-1.6
			s-0.6-0.6-1.1-0.6c-0.6,0-1,0.2-1.2,0.6s-0.4,1.2-0.4,2.4v1.3c0,1,0.1,1.8,0.2,2.2s0.3,0.7,0.5,0.9S179.8,87.5,180.3,87.5z"/>
		<path class="st1" d="M190.2,90h-3.3V72h3.3V90z"/>
		<path class="st1" d="M197.9,90.2c-1.7,0-3-0.5-4-1.5s-1.4-2.5-1.4-4.4v-1c0-2,0.4-3.5,1.3-4.6s2.1-1.6,3.8-1.6
			c1.6,0,2.8,0.5,3.6,1.5c0.8,1,1.2,2.5,1.2,4.5v1.6h-6.6c0,0.9,0.3,1.6,0.6,2.1s0.9,0.7,1.7,0.7c1.1,0,2-0.4,2.8-1.1l1.3,2
			c-0.4,0.6-1,1-1.8,1.4S198.8,90.2,197.9,90.2z M195.8,82.5h3.3v-0.3c0-0.8-0.1-1.3-0.4-1.7s-0.6-0.6-1.2-0.6s-1,0.2-1.3,0.6
			S195.8,81.5,195.8,82.5z"/>
	</g>
	<g class="st0">
		<path class="st1" d="M151.8,113v6h-3.4v-17.1h5.8c1.7,0,3,0.5,4,1.6s1.5,2.4,1.5,4.1s-0.5,3-1.5,4s-2.4,1.5-4.1,1.5H151.8z
			 M151.8,110.1h2.4c0.7,0,1.2-0.2,1.5-0.6s0.5-1.1,0.5-1.9c0-0.9-0.2-1.5-0.6-2s-0.9-0.8-1.5-0.8h-2.4V110.1z"/>
		<path class="st1" d="M168.1,109.5l-1.1-0.1c-0.9,0-1.5,0.4-1.8,1.2v8.4h-3.3v-12.7h3.1l0.1,1.4c0.5-1.1,1.2-1.6,2.2-1.6
			c0.4,0,0.7,0.1,0.9,0.2L168.1,109.5z"/>
		<path class="st1" d="M169,112.3c0-1.9,0.5-3.4,1.4-4.5s2.2-1.6,3.8-1.6c1.6,0,2.9,0.5,3.8,1.6s1.4,2.6,1.4,4.5v0.8
			c0,1.9-0.4,3.4-1.3,4.5s-2.2,1.6-3.8,1.6c-1.6,0-2.9-0.5-3.8-1.6s-1.4-2.6-1.4-4.5V112.3z M172.3,113.1c0,2.3,0.6,3.4,1.8,3.4
			c1.1,0,1.7-0.9,1.8-2.8l0-1.4c0-1.2-0.2-2-0.5-2.6s-0.8-0.8-1.4-0.8c-0.6,0-1,0.3-1.3,0.8s-0.5,1.4-0.5,2.6V113.1z"/>
		<path class="st1" d="M180.9,112.3c0-2.1,0.4-3.6,1.1-4.7s1.7-1.5,3.1-1.5c1,0,1.8,0.4,2.4,1.3V101h3.3v18h-3l-0.2-1.3
			c-0.7,1-1.6,1.5-2.6,1.5c-1.3,0-2.3-0.5-3-1.5s-1.1-2.5-1.1-4.5V112.3z M184.2,113.1c0,1.2,0.1,2.1,0.4,2.6s0.7,0.7,1.3,0.7
			c0.7,0,1.2-0.3,1.5-0.9v-5.8c-0.3-0.6-0.8-0.9-1.5-0.9c-0.6,0-1.1,0.2-1.3,0.7s-0.4,1.4-0.4,2.6V113.1z"/>
		<path class="st1" d="M199.5,117.8c-0.7,0.9-1.6,1.4-2.8,1.4c-1.2,0-2-0.4-2.6-1.2s-0.9-2-0.9-3.5v-8.2h3.3v8.3
			c0,1.2,0.4,1.9,1.2,1.9c0.8,0,1.3-0.3,1.6-1v-9.2h3.3V119h-3.1L199.5,117.8z"/>
		<path class="st1" d="M209.6,116.5c1,0,1.4-0.6,1.5-1.9h3.1c0,1.4-0.4,2.5-1.3,3.4s-1.9,1.3-3.2,1.3c-1.6,0-2.9-0.5-3.7-1.5
			s-1.3-2.5-1.3-4.5v-1c0-2,0.4-3.5,1.3-4.6s2.1-1.6,3.8-1.6c1.4,0,2.5,0.4,3.3,1.3s1.2,2.1,1.2,3.7h-3.1c0-0.7-0.1-1.3-0.4-1.6
			s-0.6-0.6-1.1-0.6c-0.6,0-1,0.2-1.2,0.6s-0.4,1.2-0.4,2.4v1.3c0,1,0.1,1.8,0.2,2.2s0.3,0.7,0.5,0.9S209.2,116.5,209.6,116.5z"/>
		<path class="st1" d="M219.9,103.2v3.1h1.7v2.5h-1.7v6.3c0,0.5,0.1,0.8,0.2,1c0.1,0.2,0.4,0.3,0.8,0.3c0.3,0,0.6,0,0.8-0.1l0,2.6
			c-0.6,0.2-1.2,0.3-1.8,0.3c-2.1,0-3.2-1.2-3.2-3.7v-6.7h-1.5v-2.5h1.5v-3.1H219.9z"/>
		<path class="st1" d="M229.1,115.6c0-0.3-0.1-0.5-0.4-0.8s-0.9-0.6-1.8-1c-1.4-0.6-2.3-1.1-2.8-1.7s-0.8-1.3-0.8-2.2
			c0-1.1,0.4-2,1.2-2.7s1.9-1.1,3.2-1.1c1.4,0,2.5,0.4,3.3,1.1s1.3,1.7,1.3,2.9h-3.3c0-1-0.4-1.5-1.3-1.5c-0.4,0-0.6,0.1-0.9,0.3
			s-0.3,0.5-0.3,0.9c0,0.3,0.1,0.5,0.4,0.7s0.8,0.5,1.8,0.9c1.4,0.5,2.3,1.1,2.9,1.7s0.8,1.4,0.8,2.4c0,1.1-0.4,2-1.3,2.7
			s-2,1-3.4,1c-0.9,0-1.8-0.2-2.5-0.5s-1.3-0.9-1.7-1.5s-0.6-1.3-0.6-2.1h3.2c0,0.6,0.2,1,0.4,1.3s0.7,0.4,1.2,0.4
			C228.6,116.8,229.1,116.4,229.1,115.6z"/>
	</g>
	<g transform="translate(70 67)">
		<g>
			<circle class="st2" cx="29" cy="29" r="29"/>
		</g>
		<g>
			<path class="st1" d="M29,58C13,58,0,45,0,29C0,13,13,0,29,0s29,13,29,29C58,45,45,58,29,58z M29,9C18,9,9,18,9,29
				c0,11,9,20,20,20s20-9,20-20C49,18,40,9,29,9z"/>
		</g>
	</g>
</g>
</svg>
